# xmcd
#
# Track frame offsets:
#	150
#	13977
#	25869
#	40464
#	53557
#	66857
#	77952
#	93830
#	107446
#	120342
#	131634
#	145122
#	154145
#	168363
#
# Disc length: 2426 seconds
#
# Revision: 1
# Processed by: cddbd v1.5.2PL0 Copyright (c) Steve Scherf et al.
# Submitted via: audiograbber 1.83.01
#
DISCID=b109780e
DTITLE=Larry Cunningham - From Nowhere At All
DYEAR=1900
DGENRE=
TTITLE0=From Nowhere At All
TTITLE1=Where The Grass Grows The Greenest
TTITLE2=Tribute To Jim Reeves
TTITLE3=Good Old Country Music
TTITLE4=El Tigre
TTITLE5=Old Ireland Is The Only Place
TTITLE6=Tribute To JFK
TTITLE7=Water For My Horses
TTITLE8=My Kathleen
TTITLE9=This World Is Not My Home
TTITLE10=Don't Let Me Cross Over
TTITLE11=Snowflakes
TTITLE12=Annaghdown
TTITLE13=Heartaches By The Number
EXTD=
EXTT0=
EXTT1=
EXTT2=
EXTT3=
EXTT4=
EXTT5=
EXTT6=
EXTT7=
EXTT8=
EXTT9=
EXTT10=
EXTT11=
EXTT12=
EXTT13=
PLAYORDER=
